<?xml version="1.0" encoding="utf-8"?>
<!-- Generator: Adobe Illustrator 24.1.2, SVG Export Plug-In . SVG Version: 6.00 Build 0)  -->
<svg version="1.1" id="Layer_1" xmlns="http://www.w3.org/2000/svg" xmlns:xlink="http://www.w3.org/1999/xlink" x="0px" y="0px"
	 viewBox="0 0 841.89 328.85" style="enable-background:new 0 0 841.89 328.85;" xml:space="preserve">
<style type="text/css">
	.st0{fill:#7B59FF;}
	.st1{fill:#F2EEFF;}
	.st2{fill:#312466;}
	.st3{fill:#231F20;}
</style>
<g>
	<g>
		<path class="st0" d="M158.78,144.08l-65.15-37.62c-15.66-9.04-35.24,2.26-35.24,20.34v75.23c0,18.08,19.58,29.39,35.24,20.34
			l65.15-37.62C174.44,175.73,174.44,153.12,158.78,144.08z"/>
		<g>
			<path class="st1" d="M78.77,153.98l3.64,5.85l5.84-9.37l-1.07-1.72c-3.94-6.32-10.73-10.09-18.18-10.09H58.39v9.91h10.61
				C73.01,148.56,76.66,150.58,78.77,153.98z"/>
			<path class="st1" d="M87.18,180.29l16.35-26.24c1.94-3.11,5.16-5.05,8.76-5.36v2.11c0,3.47,3.75,5.63,6.75,3.9l12.48-7.21
				c3-1.73,3-6.06,0-7.8l-12.48-7.21c-3-1.73-6.75,0.43-6.75,3.9v2.39c-7.05,0.32-13.42,4-17.18,10.03l-16.35,26.24
				c-2.11,3.39-5.76,5.42-9.76,5.42H58.39v9.91h10.61C76.45,190.38,83.25,186.61,87.18,180.29z"/>
			<path class="st1" d="M131.53,181.36l-12.48-7.21c-3-1.73-6.75,0.43-6.75,3.9v2.29c-3.6-0.31-6.83-2.25-8.76-5.36l-3.6-5.78
				l-5.84,9.37l1.03,1.65c3.76,6.03,10.13,9.71,17.18,10.03v2.22c0,3.47,3.75,5.63,6.75,3.9l12.48-7.21
				C134.53,187.42,134.53,183.09,131.53,181.36z"/>
		</g>
	</g>
	<g>
		<g>
			<path class="st2" d="M226.43,134.14c15.02,0,22.53,8.65,22.53,19.3c0,7.68-4.19,14.93-13.62,17.73l14.15,24.28h-16.85
				l-12.75-23.14h-3.58v23.14h-14.93v-61.3H226.43z M225.56,146.54h-9.26v15.2h9.26c5.59,0,8.21-2.88,8.21-7.68
				C233.77,149.51,231.15,146.54,225.56,146.54z"/>
			<path class="st2" d="M275.07,146.02c7.25,0,12.4,3.32,15.02,7.6v-6.9h14.93v48.73h-14.93v-6.9c-2.71,4.28-7.86,7.6-15.11,7.6
				c-11.88,0-21.4-9.78-21.4-25.15C253.59,155.62,263.11,146.02,275.07,146.02z M279.44,159.03c-5.59,0-10.65,4.19-10.65,11.96
				c0,7.77,5.06,12.14,10.65,12.14c5.68,0,10.65-4.28,10.65-12.05S285.12,159.03,279.44,159.03z"/>
			<path class="st2" d="M347.73,168.98c0-6.64-3.67-10.3-9.34-10.3c-5.68,0-9.34,3.67-9.34,10.3v26.46h-14.93v-48.73h14.93v6.46
				c2.97-4.1,8.21-6.99,14.76-6.99c11.27,0,18.78,7.69,18.78,20.78v28.47h-14.85V168.98z"/>
			<path class="st2" d="M389.73,146.02c6.46,0,12.05,2.97,15.02,7.42v-22.62h14.93v64.62h-14.93v-6.99
				c-2.71,4.45-7.86,7.68-15.02,7.68c-11.96,0-21.48-9.78-21.48-25.15C368.25,155.62,377.77,146.02,389.73,146.02z M394.1,159.03
				c-5.59,0-10.65,4.19-10.65,11.96c0,7.77,5.06,12.14,10.65,12.14c5.68,0,10.65-4.28,10.65-12.05S399.78,159.03,394.1,159.03z"/>
			<path class="st2" d="M450.95,196.14c-14.32,0-25.15-9.61-25.15-25.06c0-15.46,11.09-25.06,25.33-25.06
				c14.32,0,25.33,9.61,25.33,25.06C476.45,186.54,465.27,196.14,450.95,196.14z M450.95,183.22c5.33,0,10.3-3.93,10.3-12.14
				c0-8.3-4.89-12.14-10.13-12.14c-5.41,0-10.13,3.84-10.13,12.14C441,179.29,445.54,183.22,450.95,183.22z"/>
			<path class="st0" d="M482.65,134.14h17.64l17.2,42.44l17.03-42.44h17.55v61.3h-14.93v-36.77l-13.71,36.77h-12.05l-13.8-36.85
				v36.85h-14.93V134.14z"/>
			<path class="st0" d="M583.25,196.14c-14.32,0-25.15-9.61-25.15-25.06c0-15.46,11.09-25.06,25.33-25.06
				c14.32,0,25.33,9.61,25.33,25.06C608.75,186.54,597.58,196.14,583.25,196.14z M583.25,183.22c5.33,0,10.3-3.93,10.3-12.14
				c0-8.3-4.89-12.14-10.13-12.14c-5.41,0-10.13,3.84-10.13,12.14C573.3,179.29,577.84,183.22,583.25,183.22z"/>
			<path class="st0" d="M626.31,146.72l10.57,34.76l10.57-34.76h15.89l-17.29,48.73h-18.43l-17.29-48.73H626.31z"/>
			<path class="st0" d="M666.48,133.62c0-4.54,3.58-8.12,8.91-8.12c5.24,0,8.82,3.58,8.82,8.12c0,4.45-3.58,8.03-8.82,8.03
				C670.06,141.65,666.48,138.07,666.48,133.62z M667.87,146.72h14.93v48.73h-14.93V146.72z"/>
			<path class="st0" d="M713.55,196.14c-14.32,0-24.63-9.61-24.63-25.06c0-15.46,10.13-25.06,24.63-25.06
				c14.23,0,24.28,9.43,24.28,24.28c0,1.4-0.09,2.88-0.26,4.37h-33.8c0.52,6.38,4.45,9.34,9.26,9.34c4.19,0,6.55-2.1,7.77-4.72
				h15.89C734.33,188.81,725.69,196.14,713.55,196.14z M703.85,166.36h18.69c0-5.33-4.19-8.38-9.17-8.38
				C708.48,157.98,704.73,160.95,703.85,166.36z"/>
			<path class="st0" d="M763.76,196.14c-13.01,0-21.74-7.25-22.44-16.68h14.76c0.35,3.41,3.41,5.68,7.51,5.68
				c3.84,0,5.85-1.75,5.85-3.93c0-7.86-26.55-2.18-26.55-20.09c0-8.3,7.07-15.11,19.82-15.11c12.58,0,19.56,6.99,20.52,16.59h-13.8
				c-0.44-3.32-2.97-5.5-7.16-5.5c-3.49,0-5.41,1.4-5.41,3.76c0,7.77,26.37,2.27,26.64,20.43
				C783.5,189.77,775.99,196.14,763.76,196.14z"/>
		</g>
	</g>
</g>
</svg>
