<?xml version="1.0" encoding="utf-8"?>
<!-- Generator: Adobe Illustrator 24.1.2, SVG Export Plug-In . SVG Version: 6.00 Build 0)  -->
<svg version="1.1" id="Layer_1" xmlns="http://www.w3.org/2000/svg" xmlns:xlink="http://www.w3.org/1999/xlink" x="0px" y="0px"
	 viewBox="0 0 841.89 328.85" style="enable-background:new 0 0 841.89 328.85;" xml:space="preserve">
<style type="text/css">
	.st0{fill:#7B59FF;}
	.st1{fill:#F2EEFF;}
	.st2{fill:#312466;}
	.st3{fill:#231F20;}
</style>
<g>
	<g>
		<path class="st0" d="M160.1,144.18l-64.83-37.43c-15.58-9-35.06,2.25-35.06,20.24v74.86c0,17.99,19.48,29.24,35.06,20.24
			l64.83-37.43C175.68,175.67,175.68,153.18,160.1,144.18z"/>
		<g>
			<path class="st1" d="M80.49,154.03l3.63,5.82l5.81-9.33l-1.06-1.71c-3.92-6.29-10.68-10.04-18.09-10.04H60.21v9.86h10.56
				C74.75,148.64,78.38,150.65,80.49,154.03z"/>
			<path class="st1" d="M88.86,180.21l16.27-26.11c1.93-3.09,5.14-5.02,8.72-5.33v2.1c0,3.45,3.73,5.6,6.72,3.88l12.42-7.17
				c2.99-1.72,2.99-6.03,0-7.76l-12.42-7.17c-2.99-1.72-6.72,0.43-6.72,3.88v2.38c-7.01,0.32-13.35,3.98-17.09,9.98L80.49,175
				c-2.1,3.38-5.74,5.39-9.71,5.39H60.21v9.86h10.56C78.18,190.25,84.94,186.5,88.86,180.21z"/>
			<path class="st1" d="M132.98,181.28l-12.42-7.17c-2.99-1.72-6.72,0.43-6.72,3.88v2.28c-3.58-0.31-6.79-2.24-8.72-5.33l-3.58-5.75
				l-5.81,9.33l1.02,1.64c3.74,6,10.08,9.66,17.09,9.98v2.2c0,3.45,3.73,5.6,6.72,3.88l12.42-7.17
				C135.97,187.31,135.97,183,132.98,181.28z"/>
		</g>
	</g>
	<g>
		<g>
			<path class="st1" d="M227.41,134.29c14.95,0,22.42,8.6,22.42,19.2c0,7.65-4.17,14.86-13.55,17.64l14.08,24.16h-16.77
				l-12.69-23.03h-3.56v23.03h-14.86v-61H227.41z M226.54,146.63h-9.21v15.12h9.21c5.56,0,8.17-2.87,8.17-7.65
				C234.71,149.58,232.1,146.63,226.54,146.63z"/>
			<path class="st1" d="M275.8,146.11c7.21,0,12.34,3.3,14.95,7.56v-6.86h14.86v48.49h-14.86v-6.86c-2.69,4.26-7.82,7.56-15.03,7.56
				c-11.82,0-21.29-9.73-21.29-25.02C254.43,155.67,263.9,146.11,275.8,146.11z M280.15,159.06c-5.56,0-10.6,4.17-10.6,11.9
				c0,7.73,5.04,12.08,10.6,12.08c5.65,0,10.6-4.26,10.6-11.99S285.8,159.06,280.15,159.06z"/>
			<path class="st1" d="M348.1,168.96c0-6.6-3.65-10.25-9.3-10.25c-5.65,0-9.3,3.65-9.3,10.25v26.33h-14.86V146.8h14.86v6.43
				c2.95-4.08,8.17-6.95,14.68-6.95c11.21,0,18.68,7.65,18.68,20.68v28.33H348.1V168.96z"/>
			<path class="st1" d="M389.89,146.11c6.43,0,11.99,2.95,14.95,7.39v-22.5h14.86v64.3h-14.86v-6.95
				c-2.69,4.43-7.82,7.65-14.95,7.65c-11.9,0-21.38-9.73-21.38-25.02C368.52,155.67,377.99,146.11,389.89,146.11z M394.24,159.06
				c-5.56,0-10.6,4.17-10.6,11.9c0,7.73,5.04,12.08,10.6,12.08c5.65,0,10.6-4.26,10.6-11.99S399.88,159.06,394.24,159.06z"/>
			<path class="st1" d="M450.8,195.98c-14.25,0-25.02-9.56-25.02-24.94c0-15.38,11.04-24.94,25.2-24.94
				c14.25,0,25.2,9.56,25.2,24.94C476.17,186.43,465.05,195.98,450.8,195.98z M450.8,183.12c5.3,0,10.25-3.91,10.25-12.08
				c0-8.25-4.87-12.08-10.08-12.08c-5.39,0-10.08,3.82-10.08,12.08C440.89,179.21,445.41,183.12,450.8,183.12z"/>
			<path class="st0" d="M482.34,134.29h17.55l17.12,42.23l16.94-42.23h17.47v61h-14.86v-36.58l-13.64,36.58h-11.99l-13.73-36.67
				v36.67h-14.86V134.29z"/>
			<path class="st0" d="M582.44,195.98c-14.25,0-25.02-9.56-25.02-24.94c0-15.38,11.04-24.94,25.2-24.94
				c14.25,0,25.2,9.56,25.2,24.94C607.81,186.43,596.69,195.98,582.44,195.98z M582.44,183.12c5.3,0,10.25-3.91,10.25-12.08
				c0-8.25-4.87-12.08-10.08-12.08c-5.39,0-10.08,3.82-10.08,12.08C572.53,179.21,577.05,183.12,582.44,183.12z"/>
			<path class="st0" d="M625.28,146.8l10.51,34.58l10.51-34.58h15.81l-17.2,48.49h-18.33l-17.2-48.49H625.28z"/>
			<path class="st0" d="M665.25,133.77c0-4.52,3.56-8.08,8.86-8.08c5.21,0,8.78,3.56,8.78,8.08c0,4.43-3.56,7.99-8.78,7.99
				C668.81,141.76,665.25,138.2,665.25,133.77z M666.64,146.8h14.86v48.49h-14.86V146.8z"/>
			<path class="st0" d="M712.08,195.98c-14.25,0-24.5-9.56-24.5-24.94c0-15.38,10.08-24.94,24.5-24.94
				c14.16,0,24.16,9.38,24.16,24.16c0,1.39-0.09,2.87-0.26,4.34h-33.63c0.52,6.34,4.43,9.3,9.21,9.3c4.17,0,6.52-2.09,7.73-4.69
				h15.81C732.76,188.69,724.16,195.98,712.08,195.98z M702.43,166.35h18.59c0-5.3-4.17-8.34-9.12-8.34
				C707.04,158.01,703.3,160.97,702.43,166.35z"/>
			<path class="st0" d="M762.04,195.98c-12.95,0-21.64-7.21-22.33-16.6h14.68c0.35,3.39,3.39,5.65,7.47,5.65
				c3.82,0,5.82-1.74,5.82-3.91c0-7.82-26.41-2.17-26.41-19.99c0-8.25,7.04-15.03,19.72-15.03c12.51,0,19.46,6.95,20.42,16.51
				h-13.73c-0.43-3.3-2.95-5.47-7.13-5.47c-3.48,0-5.39,1.39-5.39,3.74c0,7.73,26.24,2.26,26.5,20.33
				C781.68,189.64,774.21,195.98,762.04,195.98z"/>
		</g>
	</g>
</g>
</svg>
