<svg xmlns="http://www.w3.org/2000/svg" xmlns:xlink="http://www.w3.org/1999/xlink" viewBox="0 0 1366 768"><defs><style>.cls-1{fill:url(#Gradiente_sem_nome_27);}</style><linearGradient id="Gradiente_sem_nome_27" x1="936.13" y1="238.6" x2="69.13" y2="736.6" gradientUnits="userSpaceOnUse"><stop offset="0" stop-color="#3b3388"/><stop offset="1" stop-color="#55c8ff"/></linearGradient></defs><title>bg</title><g id="Camada_2" data-name="Camada 2"><g id="Camada_1-2" data-name="Camada 1"><path class="cls-1" d="M201.93,681.65c39.75,0,72.89,11.31,109.18,25.86,4,1.61,8.16,3.25,12.48,3.18,5.2-.08,10-2.6,14.67-4.9,36.45-18,77.64-25.82,118.16-23.49a229.93,229.93,0,0,1,84.26,21.34c6.68,3.13,13.5,6.63,20.87,6.86,16.41.51,34-12.86,49.73-17.59,54.69-16.44,114.2-14.78,166.57,8.94,8.57,3.89,17.35,8.41,26.76,8.16,17.43-.46,33.17-12.34,49.37-17.67,18.33-6,37.95-9.07,57.17-10.05a237.15,237.15,0,0,1,109.79,20.59c6.61,3,13.27,6.36,20.5,7,19.23,1.71,38.55-14.49,56.68-19.44a252,252,0,0,1,66-8.8,240.89,240.89,0,0,1,185,86.35H1366V384s-105-211-366-211S683,0,683,0H0V768H16.9A240.89,240.89,0,0,1,201.93,681.65Z"/></g></g></svg>