<svg xmlns="http://www.w3.org/2000/svg" viewBox="0 0 449.11 368.02"><defs><style>.cls-1{fill:#5a5adb;}.cls-2{fill:#3b2a3f;}.cls-3{fill:#4545e5;}.cls-4{fill:#fff;}.cls-5{fill:#1b1b28;}.cls-6{fill:#9e6c52;}.cls-7{fill:#895842;}.cls-8{fill:#874141;}.cls-9{fill:#9b5353;}.cls-10{fill:#ed9254;}.cls-11{fill:#ffae66;}.cls-12{fill:#4f3954;}.cls-13{fill:#614b66;}.cls-14{fill:#716075;}.cls-15{fill:#f0d0c6;}.cls-16{fill:#3f2a31;}.cls-17{fill:#4f323b;}.cls-18{fill:#d8aea3;}.cls-19{fill:#5b3d31;}.cls-20{fill:#e7ac8d;}.cls-21{fill:#c17d5f;}.cls-22{fill:#4b384f;}.cls-23{fill:#2424e0;}.cls-24{fill:#2929b3;}</style></defs><title>OBJECTS (2)</title><g id="Camada_2" data-name="Camada 2"><g id="OBJECTS"><path class="cls-1" d="M14.06,128.05A138.24,138.24,0,0,1,42.67,92.32c40.75-36.66,98.14-56.91,149-69.14C238.2,12,292.45,4.52,339.84,12.31c22.23,3.65,44.34,13.27,59.72,31.2,22.55,26.28,26.95,67.1,16.76,101.36s-33,62.57-58.86,84.9a273.36,273.36,0,0,1-149.07,64.5,265,265,0,0,1-81.71-3.83c-26.44-5.45-56.05-13.49-80-27.08l-1.68-1C12.44,243.11-6.1,201,1.82,161.12A115.05,115.05,0,0,1,14.06,128.05Z"/><ellipse class="cls-1" cx="225.18" cy="349.86" rx="223.93" ry="18.16"/><ellipse class="cls-2" cx="331.13" cy="48.32" rx="17.96" ry="16.71"/><circle class="cls-3" cx="329.88" cy="48.32" r="16.71" transform="translate(35.7 205.2) rotate(-36.4)"/><path class="cls-4" d="M329.49,49.1a.65.65,0,0,1-.27-.05l-7.8-2.85a.79.79,0,1,1,.54-1.48l6.74,2.47V37a.79.79,0,0,1,1.58,0V48.32a.79.79,0,0,1-.79.78Z"/><path class="cls-3" d="M280.48,113a9.9,9.9,0,0,1-1.8-1.36,4,4,0,0,1-1.28-2,1,1,0,0,1,.19-1,1.14,1.14,0,0,1,1.09,0,17.14,17.14,0,0,1,2.36,1,5.56,5.56,0,0,1-1.61-3,1.71,1.71,0,0,1,.21-1.45,1.36,1.36,0,0,1,1.31-.38,4.09,4.09,0,0,1,1.3.62l7.45,4.7c2.79-2.4,5.95-4.92,9.55-5.69a1.75,1.75,0,0,1,1.46.17,1.56,1.56,0,0,1,.21,1.75,4.54,4.54,0,0,1-2.34,2.51,8.61,8.61,0,0,1,3-.88,1.84,1.84,0,0,1,1,.07,1.26,1.26,0,0,1,.63,1.25,2.67,2.67,0,0,1-.59,1.33,6.21,6.21,0,0,1-4,2.38c-1.8.29-2.92,2.28-4.47,3.25-1.89,1.18-4,2.27-6.23,2a7.59,7.59,0,0,1-4.13-1.94C282.63,115.43,281.82,113.75,280.48,113Z"/><path class="cls-5" d="M259.65,80.9a37.1,37.1,0,0,0,7.64,14.29c8-1.65,16-3.24,23.88-5.22,1.77-.44,5-.81,5.57-2.65A28.43,28.43,0,0,0,297.43,73c-.27-1.3.41-2.71.52-4a3.23,3.23,0,0,0-.21-1.8,2.23,2.23,0,0,0-2.42-.94c-.89.16-1.72.61-2.61.76a10.17,10.17,0,0,0-.08-3.16,3,3,0,0,0-1.74-2.32,2.56,2.56,0,0,0-2.39.52,8.52,8.52,0,0,0-1.69,2A29.7,29.7,0,0,0,285,59.87a2.79,2.79,0,0,0-1-1.27,2.09,2.09,0,0,0-2.14.49A6.45,6.45,0,0,0,279.52,64a7.48,7.48,0,0,0-3.95-4,2.61,2.61,0,0,0-2.47,0,3.16,3.16,0,0,0-1,1.41,14.72,14.72,0,0,0-1.16,4.3,8.65,8.65,0,0,0-4.11-3.26,1.63,1.63,0,0,0-1.33-.05c-.58.3-.72,1.11-.74,1.81a14.6,14.6,0,0,0,.43,3.89,9.7,9.7,0,0,0-4.27-.84,2.58,2.58,0,0,0-1.79.54,2.78,2.78,0,0,0-.68,2,6.68,6.68,0,0,0,1.46,4.13,6.64,6.64,0,0,0-2.69-.55A2.35,2.35,0,0,0,255,74.76a2.74,2.74,0,0,0,0,1.63,5.32,5.32,0,0,0,1.88,2.72A14.85,14.85,0,0,0,259.65,80.9Z"/><path class="cls-6" d="M294.8,112.3c-2.25-5.64-.93-12,.42-17.93s2.7-12.28.48-17.94c-12.31-6.77-23.06-5.33-32,5.88a23,23,0,0,0,.44,12.53c1.44,4,4.62,7.47,8.71,8.57a40.83,40.83,0,0,0,5.85.72c2,.22,2.17,1,3.61,2.33,2,1.86,2.31,3.33,2.61,6.06,0,0-12.37,4-10.64,15.25s38.17,4.79,36.7-4.73S294.8,112.3,294.8,112.3Z"/><path class="cls-7" d="M273.61,93.61h-.09a4.24,4.24,0,0,1-1.29-.28,2,2,0,0,1-1.06-1,1.05,1.05,0,0,1,.05-1.1,1.15,1.15,0,0,1,.65-.39,5.27,5.27,0,0,1,1.12-.21.36.36,0,1,1,.06.71,5.19,5.19,0,0,0-1,.18.66.66,0,0,0-.29.14.39.39,0,0,0,0,.36,1.32,1.32,0,0,0,.69.62,3.85,3.85,0,0,0,1.07.22.36.36,0,0,1,.33.38A.37.37,0,0,1,273.61,93.61Z"/><path class="cls-5" d="M277.87,86.35c.15,1-.21,1.88-.81,2s-1.22-.64-1.37-1.64.21-1.88.81-2S277.72,85.35,277.87,86.35Z"/><path class="cls-4" d="M276.74,86c.05.33-.07.62-.27.65s-.4-.21-.45-.54.07-.62.27-.65S276.69,85.7,276.74,86Z"/><path class="cls-5" d="M269.33,87.66c.15,1-.21,1.88-.82,2S267.3,89,267.14,88s.21-1.88.82-2S269.17,86.66,269.33,87.66Z"/><path class="cls-4" d="M268.2,87.34c.05.33-.07.62-.27.65s-.4-.21-.45-.54.07-.62.27-.65S268.15,87,268.2,87.34Z"/><path class="cls-5" d="M273.51,83.25a3.92,3.92,0,0,1,1.18-1,3.66,3.66,0,0,1,1.43-.47,3.81,3.81,0,0,1,1.47.15,5.61,5.61,0,0,1,1.29.59.36.36,0,0,1-.33.63h0a4.83,4.83,0,0,0-1.13-.42,2.92,2.92,0,0,0-1.14,0,2.58,2.58,0,0,0-1,.42,3.33,3.33,0,0,0-.78.76l0,0a.56.56,0,1,1-.93-.64S273.51,83.26,273.51,83.25Z"/><path class="cls-5" d="M268.37,84.75a2,2,0,0,0-.61-.48,1.14,1.14,0,0,0-.69-.15,1.42,1.42,0,0,0-.7.3,3.13,3.13,0,0,0-.6.65l0,0a.36.36,0,0,1-.5.07.37.37,0,0,1-.09-.47,4,4,0,0,1,.68-.89,2.2,2.2,0,0,1,1.07-.59,2.15,2.15,0,0,1,1.26.12,3.36,3.36,0,0,1,1,.65.58.58,0,0,1,0,.81.57.57,0,0,1-.8,0,.1.1,0,0,1,0,0Z"/><path class="cls-8" d="M278.21,95.67A2.64,2.64,0,0,1,277,97.61a3.87,3.87,0,0,1-1.79.8,4,4,0,0,1-2.59-.53,2.16,2.16,0,0,1-1.08-1.19c0-.25.1-.42.37-.54a14.38,14.38,0,0,1,2.87-.52,13.06,13.06,0,0,1,2.93-.36A.49.49,0,0,1,278.21,95.67Z"/><path class="cls-9" d="M277,97.61a3.87,3.87,0,0,1-1.79.8,4,4,0,0,1-2.59-.53A6.93,6.93,0,0,1,277,97.61Z"/><path class="cls-4" d="M277.74,95.27a5,5,0,0,1-1.33,1,4.5,4.5,0,0,1-1.54.47,4.91,4.91,0,0,1-2.93-.58,14.38,14.38,0,0,1,2.87-.52A13.06,13.06,0,0,1,277.74,95.27Z"/><path class="cls-5" d="M296.27,93.41s-1.51,7.46-2.34,7.56-.38-8.44-.38-8.44Z"/><path class="cls-5" d="M294,88A5.47,5.47,0,0,1,290.84,86a5.39,5.39,0,0,1-1.14-3.52,2.46,2.46,0,0,1-2.38-.3,3.13,3.13,0,0,1-1.23-2,4.67,4.67,0,0,1,.29-2.42,10.33,10.33,0,0,1-2.11.52,3,3,0,0,1-1.89-.42,1.8,1.8,0,0,1-.85-1.66,6.93,6.93,0,0,1-2.7,1.6,2.84,2.84,0,0,1-1.38.18,1.31,1.31,0,0,1-1-.84,5.74,5.74,0,0,1-3,2.07,2.62,2.62,0,0,1-1.41.11,1.26,1.26,0,0,1-.94-1,7,7,0,0,1-2.47,1.94,2.26,2.26,0,0,1-1.17.36,1,1,0,0,1-1-.66,5.42,5.42,0,0,1-1.86,2.11,2,2,0,0,1-2.6-.26,27.58,27.58,0,0,1,34.36-7.39,44.48,44.48,0,0,1,.48,13.48C296.07,87.54,294.86,88.14,294,88Z"/><path class="cls-6" d="M300.17,91.7c-2.3,2.41-5.56,3-7.29,1.38s-1.26-4.94,1-7.35,5.56-3,7.29-1.37S302.46,89.3,300.17,91.7Z"/><path class="cls-7" d="M297.05,92a2.07,2.07,0,0,1-1.91-.86,3.24,3.24,0,0,1-.5-2.21,5.07,5.07,0,0,1,2.91-4,.36.36,0,0,1,.29.65A4.34,4.34,0,0,0,295.35,89a2.53,2.53,0,0,0,.37,1.72,1.3,1.3,0,0,0,1.39.53.36.36,0,0,1,.46.21.36.36,0,0,1-.22.46A1.67,1.67,0,0,1,297.05,92Z"/><path class="cls-3" d="M271.08,116.21l-31.93,14.85-33.51,7.15,1,9.29s29-3.17,36.89-5.3,29.21-12.38,29.21-12.38Z"/><path class="cls-6" d="M208.31,140.72c-2-3.66-7.57-3.91-9-3.93a6.82,6.82,0,0,0-2,.29,4.82,4.82,0,0,0-1.51.78,2,2,0,0,0-.5.46c-6.42.69-16.06,2-16,3.74,0,1.47,12,.69,12,.69a2.47,2.47,0,0,0-.62,1.43,1.72,1.72,0,0,0,.55,1.39,3,3,0,0,0,2.16.43,1.81,1.81,0,0,0-.62.8,1.08,1.08,0,0,0,.13,1,1.55,1.55,0,0,0,1.21.44,8,8,0,0,0,2.39-.27,2.92,2.92,0,0,0-.65.9,1,1,0,0,0,.08,1,1.33,1.33,0,0,0,.87.32,11.55,11.55,0,0,0,2.49-.17S211.84,149.9,208.31,140.72Z"/><path class="cls-7" d="M200.9,146.79c.38-.41,1-1.21.69-1.84s-1.26-.82-3-.66c.36-.5.89-1.44.53-2.14s-1.22-.83-2.67-.74c.56-.39,1.09-.81,1.58-1.23a.19.19,0,0,0,0-.26.18.18,0,0,0-.25,0,10.83,10.83,0,0,1-4.05,2.42l-.17.06a1.17,1.17,0,0,1-.35.08.45.45,0,0,1-.38-.15.46.46,0,0,1-.07-.39,1.59,1.59,0,0,1,.21-.46,14.28,14.28,0,0,1,1.94-2.33.17.17,0,0,0,0-.25.18.18,0,0,0-.25,0,14.19,14.19,0,0,0-2,2.39,1.82,1.82,0,0,0-.26.58.79.79,0,0,0,.82,1l.22,0,.24-.07.15,0a8.59,8.59,0,0,0,2-.87h0c2.11-.25,2.79.14,3,.51.33.63-.42,1.71-.74,2.08a.17.17,0,0,0,0,.2.17.17,0,0,0,.18.1c2.38-.28,2.95.13,3.07.4.24.51-.55,1.4-.88,1.7a.19.19,0,0,0,0,.19.18.18,0,0,0,.16.12c1.7.18,2,.57,2,.73.08.45-.94,1.15-1.45,1.42a.19.19,0,0,0-.08.25.2.2,0,0,0,.21.09l0,0c.18-.09,1.8-1,1.64-1.81C202.74,147.28,202.11,147,200.9,146.79Z"/><path class="cls-3" d="M316.85,183.57c-21.29,8.52-52.26.32-52.26.32s1.41-63.69,5.89-67.24c2.55-2,6.85-3.07,10.1-3.61a42.54,42.54,0,0,1,4.36-.52c4,11.2,9.86-.22,9.86-.22s1.75.16,4.16.5c4.57.65,11.49,1.94,13.34,4.08C315.15,120.15,316.85,183.57,316.85,183.57Z"/><path class="cls-3" d="M299.53,112.88s-3.37,9-10.85,9-8.1-8.84-8.1-8.84a42.54,42.54,0,0,1,4.36-.52c4,11.2,9.86-.22,9.86-.22s1.75.16,4.16.5Z"/><path class="cls-4" d="M283.19,133.74a.45.45,0,0,1-.25-.07.49.49,0,0,1-.18-.68,13,13,0,0,0,2.07-5.2,13.29,13.29,0,0,0-.08-2.17,15.88,15.88,0,0,1-.1-2c0-1.45.62-3.24,2.14-3.93a.5.5,0,0,1,.66.24.52.52,0,0,1-.25.67,3.38,3.38,0,0,0-1.55,3,16.65,16.65,0,0,0,.09,1.84,13,13,0,0,1,.09,2.34,13.67,13.67,0,0,1-2.21,5.62A.5.5,0,0,1,283.19,133.74Z"/><path class="cls-4" d="M293.7,133h-.09a.5.5,0,0,1-.4-.58,11.27,11.27,0,0,0-.33-5.44c-.19-.6-.43-1.18-.67-1.76s-.45-1.09-.63-1.64a6.74,6.74,0,0,1-.32-3.87.5.5,0,0,1,.61-.36.49.49,0,0,1,.36.6,5.79,5.79,0,0,0,.3,3.31c.18.53.39,1,.61,1.58s.49,1.21.69,1.84a12.13,12.13,0,0,1,.36,5.92A.49.49,0,0,1,293.7,133Z"/><path class="cls-3" d="M309.3,115.12l25.95,7.56,10-24,7.66,2.81s-2,23.53-11.11,30c-6.28,4.44-31.21-4.76-31.21-4.76Z"/><path class="cls-6" d="M346.44,93.25a4.68,4.68,0,0,0-4.23-2.76,2.19,2.19,0,0,0-1.15.26,1.11,1.11,0,0,0-.57,1c0,.65.74,1,1.25,1.42,1.13.88,1.6,2.34,2.15,3.67a9.51,9.51,0,0,0,3.4,4.57,6.08,6.08,0,0,0,7.64-.88c1.82-1.87,2.25-4.68,2.33-7.29,0,0,5.84,0,5.85-1.24S357,90.86,357,90.86s5.42-2,5-3.24S355,89,355,89s4.78-5.35,4-6.35-7,5.1-7,5.1,2.72-6.7,1.62-7.54C351.8,78.74,346.44,93.25,346.44,93.25Z"/><polygon class="cls-10" points="171.72 316.93 155.58 343.89 160.33 343.89 185.41 315.98 171.72 316.93"/><polygon class="cls-10" points="206.26 316.93 190.13 343.89 194.87 343.89 219.95 315.98 206.26 316.93"/><polygon class="cls-10" points="375.85 316.93 391.98 343.89 387.23 343.89 362.16 315.98 375.85 316.93"/><polygon class="cls-10" points="341.31 316.93 357.44 343.89 352.69 343.89 327.61 315.98 341.31 316.93"/><path class="cls-11" d="M401.32,299.52v12.66a7.19,7.19,0,0,1-7.19,7.19H164.61a7.19,7.19,0,0,1-7.19-7.19v-8.63Z"/><path class="cls-10" d="M401.32,299.52v12.66a7.19,7.19,0,0,1-7.19,7.19h-59.3v-6.6l-177.41-5.09v-4.13Z"/><path class="cls-12" d="M219,235.63c-.86-1.07-4.19-1.87-8.51-2.31-17.37-2.12-60-5.91-60-5.91l7.21,79s51.79-.18,56.39,0C221,306.69,221.44,238.75,219,235.63Z"/><path class="cls-13" d="M138.67,305.42s-18.35-71-10.75-75.31,30.89-3.35,33.43,0,3.27,76.6-3.67,76.3S138.67,305.42,138.67,305.42Z"/><path class="cls-14" d="M137.9,302.37c-2.42-7.26-4.47-14.63-6.31-22.05s-3.43-14.91-4.73-22.47c-.61-3.78-1.17-7.58-1.55-11.41-.18-1.92-.33-3.85-.4-5.79a40,40,0,0,1,.15-5.88,14.58,14.58,0,0,1,.61-3,5.14,5.14,0,0,1,.77-1.56,2.15,2.15,0,0,1,.31-.38,2,2,0,0,1,.41-.35,4,4,0,0,1,.77-.41,21.56,21.56,0,0,1,5.74-1.54,53.56,53.56,0,0,1,11.52-.28,75,75,0,0,0-11.25,1.66,20.64,20.64,0,0,0-5.16,1.83,1.46,1.46,0,0,0-.72.61,3.67,3.67,0,0,0-.42,1,12.65,12.65,0,0,0-.35,2.6,69.47,69.47,0,0,0,.71,11.18c.46,3.75,1,7.5,1.69,11.24s1.29,7.49,2,11.23l2.1,11.23C135.19,287.33,136.63,294.82,137.9,302.37Z"/><path class="cls-13" d="M307.46,277.75l-22.4-.27-94.93-2.36s8.71-67.71,22-80.7c10.32-10.1,21.14-15.09,73.81-11,15.14,1.17,25.9,3.09,28.77,5.84C327.6,201.56,307.46,277.75,307.46,277.75Z"/><path class="cls-12" d="M307.46,277.75l-22.4-.27,10.71-47.15c2.52-11.12,5-23,.86-33.66a29.13,29.13,0,0,0-10.7-13.28c15.14,1.17,25.9,3.09,28.77,5.84C327.6,201.56,307.46,277.75,307.46,277.75Z"/><path class="cls-13" d="M419.37,277.75,397,277.48,302,275.12s8.71-67.71,22-80.7c10.31-10.1,21.14-15.09,73.81-11,15.14,1.17,25.9,3.09,28.77,5.84C439.51,201.56,419.37,277.75,419.37,277.75Z"/><path class="cls-12" d="M419.37,277.75,397,277.48q5.37-23.58,10.72-47.15c2.52-11.12,5-23,.86-33.66a29.13,29.13,0,0,0-10.7-13.28c15.14,1.17,25.9,3.09,28.77,5.84C439.51,201.56,419.37,277.75,419.37,277.75Z"/><path class="cls-13" d="M371.25,265l-9.32,41.46H178.34c-25.36-9.74-11.28-38.36-11.28-38.36l134-2,13.45-.2Z"/><path class="cls-14" d="M300.31,266c-11.09.62-22.19,1.09-33.29,1.48s-22.21.67-33.31.91l-16.65.31-16.66.2q-16.65.17-33.32.13l.88-.56a44.56,44.56,0,0,0-3.29,9.66,33.93,33.93,0,0,0-.71,10.19,20.87,20.87,0,0,0,3.32,9.59,22.67,22.67,0,0,0,7.63,6.93,20.82,20.82,0,0,1-12.12-16.37,33.1,33.1,0,0,1,.28-10.65,45,45,0,0,1,3.1-10.23l.24-.54.64,0q16.65-.54,33.31-.89l16.65-.3,16.66-.2q16.65-.15,33.32-.11C278.09,265.63,289.2,265.75,300.31,266Z"/><path class="cls-12" d="M371.25,265l-9.32,41.46h-41a39.31,39.31,0,0,1-6.38-40.59Z"/><path class="cls-15" d="M185.53,318.17l1.72,7.55s-19.4,7.59-20,5.67,6.61-5.56,8.08-7.6,1.19-3.21,1.19-3.21Z"/><path class="cls-16" d="M185,260l2.36,58.26-12.63,3.09s-17.61-60.39-5.42-76,83-1.92,83-1.92S257.07,279.44,185,260Z"/><path class="cls-15" d="M209.94,318.93l1.73,7.55s-19.41,7.59-20,5.68,6.61-5.57,8.08-7.6,1.19-3.22,1.19-3.22Z"/><path class="cls-17" d="M264.44,245.33s2.86,41.59-54.25,15l1.35,58.57L198.8,322s-20.54-68.19-3.14-79S264.44,245.33,264.44,245.33Z"/><path class="cls-10" d="M261.78,152.44c-.25-5,6-27-11-24.49-15.09-18.2-25.84-3.23-25.81-1.45-2.53.55-4,3.36-4.44,6s0,5.44.32,8.19c.59,5.14.61,10.46-1.31,15-1.37,3.19-3.71,6.08-3.59,9.71a10.76,10.76,0,0,0,3.14,6.81,20.94,20.94,0,0,0,6.24,4.29c11.29,5.45,24,5.16,35.4,2.41a19.65,19.65,0,0,0,6.72-2.63,8.15,8.15,0,0,0,3.67-6.09c.2-3.33-1.92-6.55-4.13-9.24S262,155.81,261.78,152.44Z"/><path class="cls-15" d="M251.05,172.42c-1.37-5.92.9-12,3.14-17.67s4.53-11.72,3.19-17.65c-11.13-8.57-22-8.78-32.49,1a23,23,0,0,0-1.47,12.45c.82,4.15,3.43,8.09,7.31,9.79a39.06,39.06,0,0,0,5.67,1.6c1.9.52,2,1.32,3.21,2.86,1.71,2.14,1.67,4.24,1.56,7,0,0-20.77-2.67-12.73,12.86,5.23,10.12,35.95,9.57,37.11,0C266.84,174,251.05,172.42,251.05,172.42Z"/><path class="cls-18" d="M232.94,150.72h-.08a4.45,4.45,0,0,1-1.24-.47,2,2,0,0,1-.9-1.12,1.08,1.08,0,0,1,.21-1.07,1.22,1.22,0,0,1,.71-.29,4.84,4.84,0,0,1,1.14,0,.36.36,0,1,1-.05.71,5.44,5.44,0,0,0-1,0,.81.81,0,0,0-.31.1.39.39,0,0,0,0,.36,1.33,1.33,0,0,0,.59.71,3.26,3.26,0,0,0,1,.38.37.37,0,0,1,.27.43A.36.36,0,0,1,232.94,150.72Z"/><path class="cls-5" d="M238.26,144.19c0,1-.5,1.83-1.11,1.83s-1.1-.82-1.1-1.83.49-1.83,1.1-1.83S238.26,143.18,238.26,144.19Z"/><path class="cls-4" d="M237.19,143.7c0,.33-.16.6-.36.6s-.37-.27-.37-.6.17-.6.37-.6S237.19,143.37,237.19,143.7Z"/><path class="cls-5" d="M229.61,144.19c0,1-.49,1.83-1.1,1.83s-1.11-.82-1.11-1.83.5-1.83,1.11-1.83S229.61,143.18,229.61,144.19Z"/><ellipse class="cls-4" cx="228.18" cy="143.7" rx="0.36" ry="0.6"/><path class="cls-10" d="M234.42,140.46a4.2,4.2,0,0,1,1.31-.8,3.62,3.62,0,0,1,1.49-.24,3.83,3.83,0,0,1,1.43.37,5.44,5.44,0,0,1,1.19.78.37.37,0,0,1,0,.51.37.37,0,0,1-.48.07l0,0a4.78,4.78,0,0,0-1.06-.58,2.74,2.74,0,0,0-1.12-.2,2.56,2.56,0,0,0-1.08.26,3.3,3.3,0,0,0-.89.63l0,0a.57.57,0,1,1-.83-.77Z"/><path class="cls-10" d="M229.11,141.17a2.14,2.14,0,0,0-.52-.57,1.26,1.26,0,0,0-.67-.25,1.35,1.35,0,0,0-.73.19,3,3,0,0,0-.7.55h0a.35.35,0,0,1-.5,0,.35.35,0,0,1,0-.48,4.24,4.24,0,0,1,.8-.78,2.35,2.35,0,0,1,1.15-.42,2.23,2.23,0,0,1,1.23.31,3.07,3.07,0,0,1,.92.81.56.56,0,0,1-.09.79.57.57,0,0,1-.8-.09l0-.06Z"/><path class="cls-4" d="M236.83,153.28c0,.75-1.58,2.13-3.53,2.13s-3.53-1.38-3.53-2.13,1.58-.61,3.53-.61S236.83,152.52,236.83,153.28Z"/><path class="cls-10" d="M252.29,149.33c-2.08-.76-3.19-3-3.83-5.11a25.79,25.79,0,0,1-1.09-7.2,29.05,29.05,0,0,1-16.91-5.11,27.15,27.15,0,0,1,14.72-2,26.7,26.7,0,0,1,13.36,6.19,15.8,15.8,0,0,1-.34,7.94C257.28,146.61,254.83,150.26,252.29,149.33Z"/><path class="cls-15" d="M259.48,152.87c-2.63,2-6,2.14-7.41.25s-.5-5.07,2.14-7.1,6-2.14,7.4-.25S262.12,150.84,259.48,152.87Z"/><path class="cls-18" d="M256.37,152.66a2.08,2.08,0,0,1-1.77-1.14,3.22,3.22,0,0,1-.15-2.26,5,5,0,0,1,3.48-3.55.35.35,0,0,1,.44.24.36.36,0,0,1-.25.45,4.35,4.35,0,0,0-3,3,2.55,2.55,0,0,0,.1,1.75,1.29,1.29,0,0,0,1.29.74.36.36,0,0,1,.42.28.36.36,0,0,1-.28.42A1.53,1.53,0,0,1,256.37,152.66Z"/><path class="cls-15" d="M225.55,174.65,209.62,208.2l-26.28,16.61,4.38,8.32s21.9-10.22,29.19-17.22,13.75-21.6,13.75-21.6Z"/><path class="cls-11" d="M178.56,213.32a3.68,3.68,0,0,1-1-2.14,1.47,1.47,0,0,1,.19-1,.68.68,0,0,1,.89-.24,2.77,2.77,0,0,1-1.27-1.26,1.81,1.81,0,0,1,.06-1.8,1.33,1.33,0,0,1,1.66-.46,2.14,2.14,0,0,1-.6-1.89A3,3,0,0,1,179,203a2,2,0,0,1,1.29-.84,1.44,1.44,0,0,1,1.39.57,5.15,5.15,0,0,1-.19-2.24,1.48,1.48,0,0,1,.22-.65,1.16,1.16,0,0,1,1.25-.35,2.17,2.17,0,0,1,1.06.86,5.23,5.23,0,0,1-1.6-4.13.77.77,0,0,1,.14-.45.7.7,0,0,1,.56-.23,3.51,3.51,0,0,1,2.49.76,1,1,0,0,1,0-1.36,1,1,0,0,1,1.4,0,10.46,10.46,0,0,1,.25-2.24,3.47,3.47,0,0,1,1-2,2.15,2.15,0,0,1,2.09-.49,2.29,2.29,0,0,1,1.3,1.39,5.53,5.53,0,0,1,.28,1.94,1.2,1.2,0,0,1,2.25.75,2.32,2.32,0,0,1,2.41-1,2.28,2.28,0,0,1,1.76,1.9,1.36,1.36,0,0,1,1.45-.5,1.32,1.32,0,0,1,1,1.16,1.91,1.91,0,0,1,1.87-.85,2.26,2.26,0,0,1,1.71,1.16,2.86,2.86,0,0,1,.23,2.09,1.63,1.63,0,0,1,1.6.46,1.45,1.45,0,0,1,.28,1.55,1.6,1.6,0,0,1,1.56.3,1.34,1.34,0,0,1,.3,1.4,1.82,1.82,0,0,1,1.11.77,1.61,1.61,0,0,1,.21,1.26c-7.37,1-13.75,5.89-21,7.37C185.21,212.16,181.89,212.22,178.56,213.32Z"/><polygon class="cls-3" points="194.19 245.41 176.53 213.3 192.88 201.91 211.27 203.22 215.21 241.65 206.45 245.41 194.19 245.41"/><path class="cls-15" d="M184.19,227.27a3.51,3.51,0,0,0-1.41.54,1.2,1.2,0,0,0-.45,1.34,1.43,1.43,0,0,0,.89.7,4.81,4.81,0,0,0,2.06.3,3.36,3.36,0,0,0-.89.54,1.32,1.32,0,0,0-.55.87,1.37,1.37,0,0,0,.84,1.29,4,4,0,0,0,1.61.28,2.65,2.65,0,0,0-.79.62,1.2,1.2,0,0,0-.26,1,1.34,1.34,0,0,0,.84.88,2.21,2.21,0,0,0,1.54,0,2.53,2.53,0,0,0-.88.74.84.84,0,0,0,0,1.05,1.21,1.21,0,0,0,.9.22,14.33,14.33,0,0,0,4.75-1,1.23,1.23,0,0,0,.64-.45.87.87,0,0,0-.33-1.08,2.54,2.54,0,0,0-1.18-.35,1.2,1.2,0,0,0,.31-.93,1.33,1.33,0,0,0-.62-1,2.14,2.14,0,0,0-1.21-.3,5.79,5.79,0,0,0-1.24.17,3.67,3.67,0,0,0,.72-.94,1.14,1.14,0,0,0,.05-1.06,1.4,1.4,0,0,0-.72-.56,4.37,4.37,0,0,0-2.45-.32c0-.43.45-.79.44-1.22a1,1,0,0,0-.42-.7A3,3,0,0,0,184.19,227.27Z"/><path class="cls-3" d="M263.62,224.07c1.34-17.57,5.59-43,4.25-45-2.42-3.59-11-5.34-11-5.34s-20.38,19.46-22.19-2a18.14,18.14,0,0,0-8.26,2.09c-2.89,1.56-7.14,24.58-7.72,43.85a48.27,48.27,0,0,1-4.07,18.1l.52,5.07c7.77,2.71,31.07,9.83,49.26,5C264.38,245.82,262.53,238.51,263.62,224.07Z"/><path class="cls-15" d="M263.49,192,274,212.4l-16.62,18.72,4.36,6.21s20.58-16.17,21.75-23.47-15.6-34.79-15.6-34.79C264.77,181.69,262.65,186.23,263.49,192Z"/><path class="cls-15" d="M259.23,230.17c-2.43-.74-4.9-1.38-7.39-1.91a5.36,5.36,0,0,0-2.75-.08,5.47,5.47,0,0,0-2.34,1.91l-2.2,2.61a1,1,0,0,0-.32.73c.07.48.75.57,1.18.36s.8-.6,1.28-.66a2.12,2.12,0,0,0-.33,1.93,5.37,5.37,0,0,0,.93,1.81,18,18,0,0,0,2.41,2.67,1.78,1.78,0,0,0,1.39.62c.71-.12,1-.95,1.17-1.64a15.38,15.38,0,0,0,6.51.27,4.62,4.62,0,0,0,2.56-1.11,3.7,3.7,0,0,0,.92-2.52C262.28,233.08,261.22,230.78,259.23,230.17Z"/><path class="cls-19" d="M350,146.62a33.4,33.4,0,0,0,1.91-8.44,11.23,11.23,0,0,0-2.47-8.07,3.74,3.74,0,0,1,3.47-.47,2.62,2.62,0,0,0-2-2,7.34,7.34,0,0,0-2.88-.11,17.07,17.07,0,0,0-8.41-8.85c.06,1.09.08,2.24.14,3.32A26.42,26.42,0,0,0,329.62,117a10.52,10.52,0,0,1,1.37,3.28,27.58,27.58,0,0,0-14.83-1.19,7.73,7.73,0,0,1,2.85,2.36,18.91,18.91,0,0,0-8.08,10.53,12.64,12.64,0,0,1,3.09-.73,15.22,15.22,0,0,0-1.46,9.84,15,15,0,0,0,4.94,8.58c1.87-.37,3.79-.89,5.67-1.15l9.28-1.33A71,71,0,0,1,350,146.62Z"/><path class="cls-20" d="M342.82,171.86c-1.37-5.92.9-12,3.14-17.66s4.53-11.73,3.19-17.66c-11.13-8.57-22-8.77-32.49,1a23,23,0,0,0-1.47,12.45c.82,4.16,3.43,8.09,7.3,9.79a38.3,38.3,0,0,0,5.68,1.6c1.9.52,2,1.33,3.21,2.86,1.71,2.15,1.68,5.15,1.57,7.89,0,0-12.74.56-12.74,11.95s37.11,9.63,37.11,0S342.82,171.86,342.82,171.86Z"/><path class="cls-21" d="M324.71,150.16h-.08a3.91,3.91,0,0,1-1.24-.47,2,2,0,0,1-.9-1.12,1.08,1.08,0,0,1,.21-1.07,1.22,1.22,0,0,1,.71-.29,4.84,4.84,0,0,1,1.14,0,.36.36,0,0,1,.33.38.34.34,0,0,1-.38.33,4.66,4.66,0,0,0-1,0,.67.67,0,0,0-.31.09.39.39,0,0,0,0,.36,1.33,1.33,0,0,0,.59.71,3.26,3.26,0,0,0,1,.38.37.37,0,0,1,.27.43A.36.36,0,0,1,324.71,150.16Z"/><path class="cls-21" d="M324.59,153.73a6.56,6.56,0,0,1-2.92-.68.36.36,0,1,1,.32-.64,5.92,5.92,0,0,0,5.64-.24.36.36,0,0,1,.49.12.36.36,0,0,1-.12.5A6.58,6.58,0,0,1,324.59,153.73Z"/><path class="cls-21" d="M324.94,155.16a6.05,6.05,0,0,1-1.53-.19.36.36,0,0,1,.19-.69,5.36,5.36,0,0,0,2.39.06.37.37,0,0,1,.43.28.36.36,0,0,1-.28.42A6.11,6.11,0,0,1,324.94,155.16Z"/><path class="cls-5" d="M330,143.63c0,1-.5,1.83-1.11,1.83s-1.1-.82-1.1-1.83.49-1.82,1.1-1.82S330,142.62,330,143.63Z"/><path class="cls-4" d="M329,143.14c0,.34-.16.61-.36.61s-.37-.27-.37-.61.17-.6.37-.6S329,142.81,329,143.14Z"/><path class="cls-5" d="M321.38,143.63c0,1-.49,1.83-1.1,1.83s-1.11-.82-1.11-1.83.5-1.82,1.11-1.82S321.38,142.62,321.38,143.63Z"/><path class="cls-4" d="M320.32,143.14c0,.34-.16.61-.37.61s-.36-.27-.36-.61.16-.6.36-.6S320.32,142.81,320.32,143.14Z"/><path class="cls-19" d="M326.19,139.91a4.06,4.06,0,0,1,1.31-.81,3.64,3.64,0,0,1,2.92.13,5.47,5.47,0,0,1,1.19.79.36.36,0,0,1,.05.5.37.37,0,0,1-.48.07l0,0a4.78,4.78,0,0,0-1.06-.58,2.74,2.74,0,0,0-1.12-.2,2.53,2.53,0,0,0-1.08.26,3.3,3.3,0,0,0-.89.63l0,0a.57.57,0,1,1-.83-.77Z"/><path class="cls-19" d="M320.88,140.61a2.14,2.14,0,0,0-.52-.57,1.26,1.26,0,0,0-.67-.25,1.35,1.35,0,0,0-.73.19,3,3,0,0,0-.7.55l0,0a.36.36,0,0,1-.5,0,.35.35,0,0,1,0-.48,3.91,3.91,0,0,1,.8-.77,2.27,2.27,0,0,1,1.15-.43,2.23,2.23,0,0,1,1.23.31,3.22,3.22,0,0,1,.92.81.57.57,0,1,1-.89.7l0-.05Z"/><path class="cls-19" d="M344.35,148.93a4.58,4.58,0,0,1-2.35-1.87,17.89,17.89,0,0,1-3.5-11.71,13.72,13.72,0,0,0-8.39,1.49,3.47,3.47,0,0,1,.53-2.22,14.58,14.58,0,0,0-7.64,2.72,5.31,5.31,0,0,1,.71-2.24,25.5,25.5,0,0,0-8.36,4.08,24.67,24.67,0,0,0,.7-2.59c1.69-6.15,10.43-7.85,16.81-8a22.66,22.66,0,0,1,17,7.41,35.33,35.33,0,0,1,.5,5.32,11.83,11.83,0,0,1-1.21,5.18,5.59,5.59,0,0,1-2.05,2.31A3.48,3.48,0,0,1,344.35,148.93Z"/><path class="cls-19" d="M347.14,153.41s-2.62,7.15-3.46,7.11.91-8.4.91-8.4Z"/><path class="cls-20" d="M351.25,152.31c-2.63,2-5.95,2.14-7.41.25s-.5-5.07,2.14-7.1,5.95-2.14,7.4-.25S353.89,150.29,351.25,152.31Z"/><path class="cls-21" d="M348.13,152.1a2.05,2.05,0,0,1-1.76-1.14,3.22,3.22,0,0,1-.15-2.26,5,5,0,0,1,3.48-3.55.36.36,0,1,1,.19.69,4.33,4.33,0,0,0-3,3,2.55,2.55,0,0,0,.1,1.75,1.28,1.28,0,0,0,1.29.74.36.36,0,0,1,.42.28.36.36,0,0,1-.28.42A1.55,1.55,0,0,1,348.13,152.1Z"/><path class="cls-3" d="M333,172.08s-9.95.57-14.45,4.12-5.89,67.24-5.89,67.24,31,8.2,52.26-.31c0,0-1.71-63.42-4.55-66.69s-17.5-4.58-17.5-4.58S336.93,183.27,333,172.08Z"/><polygon class="cls-3" points="358.89 175.38 380.16 187.08 373.05 198.48 356.7 188.84 358.89 175.38"/><path class="cls-20" d="M373.67,197.48l11,6.24-11.69,18,6.5,3.4s19.31-17.37,17.5-22.4S379.6,188,379.6,188Z"/><path class="cls-20" d="M376.6,220.9q-3.66-1.12-7.39-1.92a5.47,5.47,0,0,0-2.75-.08,5.57,5.57,0,0,0-2.35,1.91l-2.19,2.62a1,1,0,0,0-.33.72c.07.48.76.57,1.19.36a4.87,4.87,0,0,1,1.28-.66,2.12,2.12,0,0,0-.33,1.93,5,5,0,0,0,.93,1.81,17.47,17.47,0,0,0,2.41,2.67,1.76,1.76,0,0,0,1.39.63c.7-.12,1-.95,1.17-1.65a15.5,15.5,0,0,0,6.5.28,4.56,4.56,0,0,0,2.57-1.12,3.62,3.62,0,0,0,.91-2.51C379.64,223.8,378.59,221.51,376.6,220.9Z"/><polygon class="cls-3" points="324.03 173.62 302.04 176.9 303.89 190.4 323.12 187.93 324.03 173.62"/><path class="cls-20" d="M302.32,179l-17.26,3-34.18,2.48v9.41s27.85-1.92,33.76-2,19.09-2.68,19.09-2.68Z"/><path class="cls-20" d="M243,186.49a19.6,19.6,0,0,1-3.81-4.07,1.35,1.35,0,0,1-.26-1.26,1,1,0,0,1,.73-.47,2.5,2.5,0,0,1,.9.07A53.42,53.42,0,0,1,252,185c1,.45,1.24,1.77,1.42,2.85a4.89,4.89,0,0,1-.51,3.16,5.72,5.72,0,0,1-5.39,2.78,4.23,4.23,0,0,1-2.63-1,6.32,6.32,0,0,1-1.5-3.47C243.17,188.34,243.18,187.45,243,186.49Z"/><polygon class="cls-2" points="248.86 196.59 228.74 181.83 232.44 177.77 252.18 192.53 248.86 196.59"/><path class="cls-20" d="M238.31,189.11a3.43,3.43,0,0,0-1.11,1,1.2,1.2,0,0,0,.08,1.42,1.49,1.49,0,0,0,1.09.31,4.74,4.74,0,0,0,2-.5,4,4,0,0,0-.63.84,1.38,1.38,0,0,0-.17,1,1.35,1.35,0,0,0,1.26.88,3.9,3.9,0,0,0,1.6-.34,2.66,2.66,0,0,0-.51.87,1.25,1.25,0,0,0,.13,1,1.42,1.42,0,0,0,1.12.5,2.24,2.24,0,0,0,1.44-.53,2.42,2.42,0,0,0-.54,1,.84.84,0,0,0,.42,1,1.2,1.2,0,0,0,.92-.13,14.47,14.47,0,0,0,4-2.72,1.25,1.25,0,0,0,.43-.66.87.87,0,0,0-.72-.88,2.44,2.44,0,0,0-1.22.12,1.24,1.24,0,0,0-.06-1,1.33,1.33,0,0,0-1-.73,2.18,2.18,0,0,0-1.23.17,5.93,5.93,0,0,0-1.09.63,3.86,3.86,0,0,0,.32-1.15,1.15,1.15,0,0,0-.35-1,1.49,1.49,0,0,0-.88-.25,4.47,4.47,0,0,0-2.39.62c-.13-.41.12-.89,0-1.29a1,1,0,0,0-.66-.5A3,3,0,0,0,238.31,189.11Z"/><path class="cls-2" d="M312.65,326.07,293.8,269.13l50.58-2.75V246s-57.73-4-70.14,8,26.61,76.52,26.61,76.52Z"/><path class="cls-20" d="M311.25,326.57l2.62,7.29s-18.36,9.85-19.17,8,5.9-6.31,7.12-8.51a5.7,5.7,0,0,0,.9-3.63Z"/><path class="cls-22" d="M366.32,243s8.77,45.81-79,15.07l-32,45.76-10.81-6.53s20.49-49,35-55.9C298,232.61,366.32,243,366.32,243Z"/><path class="cls-20" d="M253.93,303l-4.25,6.48s-18.92-8.74-17.94-10.49,8.59.91,11.08.56,3.14-1.37,3.14-1.37Z"/><path class="cls-12" d="M430.84,236.81c-.63-1.07-3.78-1.88-8-2.31-16.92-2.13-58.68-5.91-58.68-5.91l-10.1,79s51.83-.18,56.39,0C417.33,307.86,432.65,239.92,430.84,236.81Z"/><path class="cls-13" d="M335.27,306.59s-2.8-71,5.74-75.31,31.63-3.35,33.44,0-13.51,76.6-20.39,76.31S335.27,306.59,335.27,306.59Z"/><path class="cls-14" d="M335.16,303.55c-.81-7.46-1.24-14.95-1.44-22.44s-.16-15,.2-22.5c.22-3.75.49-7.51.93-11.26.24-1.87.51-3.74.85-5.62a44.3,44.3,0,0,1,1.33-5.58,21.23,21.23,0,0,1,1.07-2.76,6.76,6.76,0,0,1,2-2.6,6.91,6.91,0,0,1,1.47-.71c.46-.17.93-.32,1.4-.46a27.78,27.78,0,0,1,2.81-.64,50.89,50.89,0,0,1,11.28-.55,71.4,71.4,0,0,0-11,1.92c-.88.24-1.75.52-2.59.83-.42.16-.84.34-1.24.53a5.16,5.16,0,0,0-1,.57,5.53,5.53,0,0,0-1.22,2,19.52,19.52,0,0,0-.8,2.52,76.28,76.28,0,0,0-1.63,10.88c-.35,3.69-.6,7.4-.77,11.12s-.35,7.44-.48,11.16l-.36,11.19C335.73,288.58,335.53,296.05,335.16,303.55Z"/><path class="cls-3" d="M414.05,258.45s-19-25.68-23.56-68.51c0,0,20.56,30.65,28.92,64.73Z"/><path class="cls-3" d="M414.29,258.24s-8.47-22.51-3-54.48c0,0,8.59,26.44,7.63,52.85Z"/><path class="cls-3" d="M413.22,256.82s1.7-29.9,24.08-63.55c0,0-3.55,34.45-17.95,64Z"/><path class="cls-3" d="M415.83,258.7s-13.35-24.08-12.46-61.21c0,0,14.14,28.52,17.46,58.59Z"/><path class="cls-3" d="M413.62,257.17s-3.81-35.32,15.84-79c0,0,2.53,41-8.57,78.42Z"/><path class="cls-3" d="M413.56,256s7.13-29.49,35.55-58.95c0,0-9.8,33.68-29.53,60.55Z"/><path class="cls-3" d="M420.06,303.82c0-28.14,11.81-54.38,11.81-54.38H402.55s11.8,26.24,11.8,54.38S398,322.17,398,337.67s14.33,18,14.33,18h9.78s14.33-2.51,14.33-18S420.06,332,420.06,303.82Z"/><polygon class="cls-13" points="37.02 341.5 37.02 355.77 161.74 355.77 161.74 342.51 37.02 341.5"/><polygon class="cls-12" points="37.02 341.5 37.02 345.09 134.39 347.77 134.39 355.77 161.74 355.77 161.74 342.51 37.02 341.5"/><polygon class="cls-23" points="146.55 286.53 181.88 286.53 164.22 343.49 134.39 343.49 136.04 307.94 146.55 286.53"/><polygon class="cls-3" points="146.55 286.53 134.39 343.49 31.86 343.49 18.39 286.53 146.55 286.53"/><polygon class="cls-2" points="139.69 270.1 123.52 286.53 128.94 286.53 142.89 273.11 156.57 286.53 160.15 286.53 146.09 270.1 139.69 270.1"/><polygon class="cls-2" points="45.57 270.1 29.41 286.53 34.83 286.53 48.78 273.11 62.46 286.53 66.03 286.53 51.97 270.1 45.57 270.1"/><polygon class="cls-2" points="106.62 275.51 110.9 275.51 115.02 267.4 109.05 267.4 106.62 275.51"/><polygon class="cls-2" points="177.26 159.28 181.01 159.28 177.26 270.1 173.78 270.1 172.47 197.14 177.26 159.28"/><polygon class="cls-22" points="177.26 159.28 15.78 159.28 15.78 270.1 83.59 270.1 86.14 275.5 106.62 275.5 109.14 270.1 173.78 270.1 177.26 159.28"/><polygon class="cls-2" points="27.99 256.68 155.79 255.03 160.58 175.03 159.77 260.47 27.99 256.68"/><polygon class="cls-2" points="83.81 195.85 87.13 196.79 86.46 235.45 83.81 234.44 83.81 195.85"/><polygon class="cls-2" points="92.62 195.85 95.94 196.79 95.28 235.45 92.62 234.44 92.62 195.85"/><polygon class="cls-2" points="101.44 195.85 104.76 196.79 104.09 235.45 101.44 234.44 101.44 195.85"/><rect class="cls-23" x="59.67" width="57.67" height="100.42"/><rect class="cls-3" x="63.09" y="5.96" width="50.82" height="88.5"/><polygon class="cls-23" points="88.51 32.3 72.34 60.29 104.67 60.29 88.51 32.3"/><rect class="cls-24" x="121.62" y="29.63" width="57.67" height="100.42"/><rect class="cls-1" x="125.04" y="35.6" width="50.82" height="88.5"/><polygon class="cls-24" points="150.46 98.39 166.62 70.4 134.29 70.4 150.46 98.39"/></g></g></svg>